HIERARCHY
ROOT Hips
{
	OFFSET 0.00 0.00 0.00
	CHANNELS 6 Xposition Yposition Zposition Zrotation Yrotation Xrotation
	JOINT Spine
	{
		OFFSET	0.0000	5.2453	0.2588
		CHANNELS 3 Zrotation Yrotation Xrotation
		JOINT Spine1
		{
			OFFSET	-0.0314	11.0449	-0.6976
			CHANNELS 3 Zrotation Yrotation Xrotation
			JOINT Spine2
			{
				OFFSET	-0.0359	8.0689	-1.0877
				CHANNELS 3 Zrotation Yrotation Xrotation
				JOINT Neck
				{
					OFFSET	-0.0403	18.9195	-3.7361
					CHANNELS 3 Zrotation Yrotation Xrotation
					JOINT Head
					{
						OFFSET	0.0000	8.6730	3.3193
						CHANNELS 3 Zrotation Yrotation Xrotation
						End Site
						{
							OFFSET 0.0000 17.1839 4.9485
						}
					}
				}
				JOINT RightShoulder
				{
					OFFSET	-6.5767	15.0245	-2.1196
					CHANNELS 3 Zrotation Yrotation Xrotation
					JOINT RightArm
					{
						OFFSET	-8.3247	-3.0411	-2.5696
						CHANNELS 3 Zrotation Yrotation Xrotation
						JOINT RightForeArm
						{
							OFFSET	-17.5494	-16.9552	2.9006
							CHANNELS 3 Zrotation Yrotation Xrotation
							JOINT RightHand
							{
								OFFSET	-16.5646	-14.7053	6.5438
								CHANNELS 3 Zrotation Yrotation Xrotation
								JOINT RightHandThumb1
								{
									OFFSET	-0.9219	-2.3990	3.6223
									CHANNELS 3 Zrotation Yrotation Xrotation
									JOINT RightHandThumb2
									{
										OFFSET	-0.5573	-1.6299	2.4846
										CHANNELS 3 Zrotation Yrotation Xrotation
										JOINT RightHandThumb3
										{
											OFFSET	-0.8350	-2.6570	2.8843
											CHANNELS 3 Zrotation Yrotation Xrotation
											End Site
											{
												OFFSET -0.4639 -2.1814 2.3905
											}
										}
									}
								}
								JOINT RightHandIndex1
								{
									OFFSET	-6.5668	-6.3646	6.7189
									CHANNELS 3 Zrotation Yrotation Xrotation
									JOINT RightHandIndex2
									{
										OFFSET	-1.3621	-1.8237	1.2457
										CHANNELS 3 Zrotation Yrotation Xrotation
										JOINT RightHandIndex3
										{
											OFFSET	-0.7826	-1.5416	0.9441
											CHANNELS 3 Zrotation Yrotation Xrotation
											End Site
											{
												OFFSET -1.0583 -1.9816 1.1235
											}
										}
									}
								}
								JOINT RightHandMiddle1
								{
									OFFSET	-7.2081	-7.5143	4.7566
									CHANNELS 3 Zrotation Yrotation Xrotation
									JOINT RightHandMiddle2
									{
										OFFSET	-1.4024	-2.3481	0.9100
										CHANNELS 3 Zrotation Yrotation Xrotation
										JOINT RightHandMiddle3
										{
											OFFSET	-0.7867	-1.7609	0.7118
											CHANNELS 3 Zrotation Yrotation Xrotation
											End Site
											{
												OFFSET -0.6117 -2.5008 0.9555
											}
										}
									}
								}
								JOINT RightHandRing1
								{
									OFFSET	-7.1245	-7.8267	2.3635
									CHANNELS 3 Zrotation Yrotation Xrotation
									JOINT RightHandRing2
									{
										OFFSET	-1.1361	-2.6980	0.7249
										CHANNELS 3 Zrotation Yrotation Xrotation
										JOINT RightHandRing3
										{
											OFFSET	-0.8342	-2.0102	0.5016
											CHANNELS 3 Zrotation Yrotation Xrotation
											End Site
											{
												OFFSET -0.5888 -2.1490 0.5881
											}
										}
									}
								}
								JOINT RightHandPinky1
								{
									OFFSET	-6.2299	-8.3643	0.5174
									CHANNELS 3 Zrotation Yrotation Xrotation
									JOINT RightHandPinky2
									{
										OFFSET	-0.9194	-2.5567	0.3358
										CHANNELS 3 Zrotation Yrotation Xrotation
										JOINT RightHandPinky3
										{
											OFFSET	-0.3108	-1.3823	0.2677
											CHANNELS 3 Zrotation Yrotation Xrotation
											End Site
											{
												OFFSET -0.2542 -2.0379 0.4259
											}
										}
									}
								}
							}
						}
					}
				}
				JOINT LeftShoulder
				{
					OFFSET	6.7112	15.0245	-2.1196
					CHANNELS 3 Zrotation Yrotation Xrotation
					JOINT LeftArm
					{
						OFFSET	8.3247	-3.0411	-2.5696
						CHANNELS 3 Zrotation Yrotation Xrotation
						JOINT LeftForeArm
						{
							OFFSET	17.5494	-16.9552	2.9006
							CHANNELS 3 Zrotation Yrotation Xrotation
							JOINT LeftHand
							{
								OFFSET	16.5646	-14.7053	6.5438
								CHANNELS 3 Zrotation Yrotation Xrotation
								JOINT LeftHandThumb1
								{
									OFFSET	0.9219	-2.3990	3.6223
									CHANNELS 3 Zrotation Yrotation Xrotation
									JOINT LeftHandThumb2
									{
										OFFSET	0.5573	-1.6299	2.4846
										CHANNELS 3 Zrotation Yrotation Xrotation
										JOINT LeftHandThumb3
										{
											OFFSET	0.8350	-2.6570	2.8843
											CHANNELS 3 Zrotation Yrotation Xrotation
											End Site
											{
												OFFSET 0.4639 -2.1814 2.3905
											}
										}
									}
								}
								JOINT LeftHandIndex1
								{
									OFFSET	6.5668	-6.3646	6.7189
									CHANNELS 3 Zrotation Yrotation Xrotation
									JOINT LeftHandIndex2
									{
										OFFSET	1.3621	-1.8237	1.2457
										CHANNELS 3 Zrotation Yrotation Xrotation
										JOINT LeftHandIndex3
										{
											OFFSET	0.7826	-1.5416	0.9441
											CHANNELS 3 Zrotation Yrotation Xrotation
											End Site
											{
												OFFSET 1.0583 -1.9816 1.1235
											}
										}
									}
								}
								JOINT LeftHandMiddle1
								{
									OFFSET	7.2081	-7.5143	4.7566
									CHANNELS 3 Zrotation Yrotation Xrotation
									JOINT LeftHandMiddle2
									{
										OFFSET	1.4024	-2.3481	0.9100
										CHANNELS 3 Zrotation Yrotation Xrotation
										JOINT LeftHandMiddle3
										{
											OFFSET	0.7867	-1.7609	0.7118
											CHANNELS 3 Zrotation Yrotation Xrotation
											End Site
											{
												OFFSET 0.6117 -2.5008 0.9555
											}
										}
									}
								}
								JOINT LeftHandRing1
								{
									OFFSET	7.1245	-7.8267	2.3635
									CHANNELS 3 Zrotation Yrotation Xrotation
									JOINT LeftHandRing2
									{
										OFFSET	1.1361	-2.6980	0.7249
										CHANNELS 3 Zrotation Yrotation Xrotation
										JOINT LeftHandRing3
										{
											OFFSET	0.8342	-2.0102	0.5016
											CHANNELS 3 Zrotation Yrotation Xrotation
											End Site
											{
												OFFSET 0.5888 -2.1490 0.5881
											}
										}
									}
								}
								JOINT LeftHandPinky1
								{
									OFFSET	6.2299	-8.3643	0.5174
									CHANNELS 3 Zrotation Yrotation Xrotation
									JOINT LeftHandPinky2
									{
										OFFSET	0.9194	-2.5567	0.3358
										CHANNELS 3 Zrotation Yrotation Xrotation
										JOINT LeftHandPinky3
										{
											OFFSET	0.3108	-1.3823	0.2677
											CHANNELS 3 Zrotation Yrotation Xrotation
											End Site
											{
												OFFSET 0.2542 -2.0379 0.4259
											}
										}
									}
								}
							}
						}
					}
				}
			}
		}
	}
	JOINT LeftUpLeg
	{
		OFFSET	9.6888	-5.6852	-1.6886
		CHANNELS 3 Zrotation Yrotation Xrotation
		JOINT LeftLeg
		{
			OFFSET	0.3500	-43.1158	2.0924
			CHANNELS 3 Zrotation Yrotation Xrotation
			JOINT LeftFoot
			{
				OFFSET	1.6118	-40.8061	-2.6433
				CHANNELS 3 Zrotation Yrotation Xrotation
				JOINT LeftToeBase
				{
					OFFSET	0.8620	-15.6664	8.6141
					CHANNELS 3 Zrotation Yrotation Xrotation
					End Site
					{
						OFFSET 2.0076 -0.0546 13.3237
					}
				}
			}
		}
	}
	JOINT RightUpLeg
	{
		OFFSET	-9.6888	-5.6852	-1.6886
		CHANNELS 3 Zrotation Yrotation Xrotation
		JOINT RightLeg
		{
			OFFSET	-0.3500	-43.1158	2.0924
			CHANNELS 3 Zrotation Yrotation Xrotation
			JOINT RightFoot
			{
				OFFSET	-1.6118	-40.8061	-2.6433
				CHANNELS 3 Zrotation Yrotation Xrotation
				JOINT RightToeBase
				{
					OFFSET	-0.8620	-15.6664	8.6141
					CHANNELS 3 Zrotation Yrotation Xrotation
					End Site
					{
						OFFSET -2.0076 -0.0546 13.3237
					}
				}
			}
		}
	}
}
MOTION
Frames: 8
Frame Time: 0.0333333
0.2066 102.7023 2.0143 -1.2109 -0.1301 -1.5186 0.1600 -0.1380 0.9679 0.1021 -2.4805 1.0155 0.1456 -2.4776 1.0086 -1.4682 0.8106 -2.7715 3.5307 -1.8728 5.4707 -12.2562 2.5743 0.4580 39.9663 18.3672 15.5344 0.9065 13.2185 -11.4514 -7.3094 -6.8332 24.5248 -2.1201 -8.6677 23.0039 -3.1517 6.3559 -6.1658 -4.8923 -4.7289 -1.8359 4.7037 -2.5119 6.9442 27.4809 10.7618 9.6310 8.1270 4.6306 0.5493 8.4590 5.1001 0.7330 21.9803 5.1337 5.7275 -3.4539 -2.9590 -0.5351 9.0874 9.3374 -5.8270 21.3651 4.6889 2.0713 1.8532 -2.1092 1.4701 13.8190 13.8486 -8.7168 10.2419 0.1318 4.0509 2.3197 0.2179 1.2816 8.1364 7.3576 0.6916 -36.7382 -15.8865 18.0486 -0.5326 -14.8193 -13.0054 -1.9973 -0.7806 31.6962 -5.9893 14.3795 2.5335 3.5750 1.5562 6.7852 4.8095 5.5137 2.1022 -13.3179 -3.7869 5.0682 -24.5276 -9.9279 8.3464 -16.6763 -8.0065 3.5197 -13.9942 -10.1965 -2.8288 -16.8386 -3.9259 4.5350 -4.9261 -1.4835 1.2145 -12.2342 -12.1557 -8.7879 -16.6675 -3.8511 1.2774 -3.9770 -0.1464 2.1942 -22.4838 -17.0024 -7.2714 -13.9740 -2.8230 0.8722 -2.2196 -0.2018 1.2662 1.0338 4.2607 -8.4304 4.4569 8.8891 24.0662 -2.9994 1.6800 -13.5922 0.0000 -0.0000 -0.4642 -2.9928 -14.0300 -8.3459 -2.6750 -4.0261 19.8391 6.1203 -3.3355 -8.5119 0.0000 -0.0000 -0.0000 
0.3947 102.6569 1.9761 -1.3158 -0.1483 -1.5409 0.1576 -0.1235 1.0054 0.0869 -2.4608 1.0860 0.1318 -2.4581 1.0796 -1.4175 0.7921 -2.7398 3.5759 -1.8894 5.4252 -12.1068 2.8226 0.4586 39.8593 18.4537 15.5336 0.8969 13.2622 -11.4934 -7.3652 -6.8322 24.4708 -2.2304 -8.7240 22.9919 -3.1129 6.3557 -6.2255 -4.8890 -4.7261 -1.8350 4.7458 -2.4648 6.9118 27.4641 10.7571 9.6238 8.0802 4.6107 0.5341 8.6169 5.1955 0.7158 21.9061 5.1168 5.7099 -3.5289 -3.0035 -0.5503 9.1858 9.4110 -5.8865 21.2878 4.6755 2.0581 1.8009 -2.1298 1.4621 13.9973 13.9474 -8.7695 10.2170 0.1291 4.0494 2.2157 0.1994 1.2748 8.1976 7.2173 0.6884 -36.8151 -16.0200 18.0664 -0.5366 -14.8034 -12.9897 -2.0184 -0.8302 31.7388 -5.9828 14.3888 2.5366 3.5706 1.5606 6.7728 4.8082 5.5124 2.1014 -13.4184 -3.8181 5.1049 -24.3463 -9.8724 8.2707 -16.5886 -7.9746 3.4869 -14.1030 -10.2455 -2.8159 -16.7131 -3.8945 4.5078 -4.8636 -1.4634 1.2034 -12.3075 -12.2057 -8.8226 -16.6135 -3.8409 1.2689 -3.9475 -0.1403 2.1911 -22.6126 -17.0699 -7.3138 -13.9740 -2.8230 0.8722 -2.2207 -0.2020 1.2663 1.0390 4.3088 -8.5967 4.4424 8.8340 24.4165 -2.8775 1.7163 -13.7865 0.0000 0.0000 -0.4458 -2.9850 -14.1318 -8.3911 -2.7433 -4.0332 19.8980 6.2385 -3.1952 -8.4562 -0.0000 0.0000 -0.0000 
0.5769 102.6218 1.9631 -1.4117 -0.1556 -1.5671 0.1530 -0.1087 1.0376 0.0694 -2.4364 1.1479 0.1156 -2.4338 1.1421 -1.3728 0.7769 -2.6851 3.6188 -1.9065 5.4252 -12.0329 2.9706 0.4580 39.8619 18.5212 15.5598 0.8917 13.2858 -11.5161 -7.3613 -6.9226 24.3279 -2.3058 -8.7604 22.9928 -3.0826 6.3558 -6.2715 -4.8871 -4.7242 -1.8359 4.8484 -2.4171 6.9296 27.4111 10.7422 9.6009 7.9982 4.5759 0.5077 8.6242 5.2132 0.6927 21.9344 5.1233 5.7166 -3.6065 -3.0212 -0.5580 9.1456 9.4177 -5.9462 21.3748 4.6906 2.0730 1.7648 -2.1216 1.4631 13.9924 13.9712 -8.8386 10.3052 0.1386 4.0547 2.1685 0.1910 1.2718 8.2371 7.1551 0.6883 -36.8360 -16.0700 18.0566 -0.5418 -14.7820 -12.9688 -2.0157 -0.8862 31.7948 -5.9768 14.3979 2.5408 3.5663 1.5659 6.7589 4.8065 5.5102 2.0970 -13.5177 -3.8470 5.1438 -24.1801 -9.8213 8.2014 -16.5074 -7.9451 3.4566 -14.2243 -10.2972 -2.7970 -16.5979 -3.8656 4.4830 -4.8057 -1.4448 1.1930 -12.3998 -12.2615 -8.8502 -16.5645 -3.8317 1.2612 -3.9199 -0.1346 2.1882 -22.7864 -17.1492 -7.3396 -13.9740 -2.8230 0.8723 -2.2215 -0.2022 1.2663 1.0439 4.3532 -8.7086 4.4009 8.7695 24.6957 -2.7499 1.7643 -13.9626 -0.0000 0.0000 -0.4395 -2.9884 -14.2226 -8.3870 -2.8151 -4.0609 19.9065 6.3609 -3.0565 -8.3933 0.0000 0.0000 -0.0001 
0.7395 102.6166 2.0192 -1.4766 -0.1344 -1.6122 0.1422 -0.0944 1.0571 0.0448 -2.4013 1.1896 0.0922 -2.3989 1.1848 -1.3556 0.7739 -2.5682 3.6564 -1.9236 5.5316 -12.0014 3.0579 0.4574 39.9335 18.5822 15.6177 0.8878 13.3035 -11.5332 -7.3201 -7.0654 24.1374 -2.2342 -8.7476 22.9654 -3.1152 6.3668 -6.1973 -4.8913 -4.7341 -1.8091 5.1097 -2.3711 7.0837 27.2558 10.6986 9.5340 7.8248 4.5021 0.4521 8.1230 4.9827 0.6262 22.2892 5.2036 5.8010 -3.6773 -2.9497 -0.5405 8.6572 9.2165 -6.0281 21.9737 4.7938 2.1768 1.7828 -2.0207 1.4931 13.3904 13.7590 -8.9857 10.7506 0.1868 4.0813 2.2994 0.2143 1.2802 8.2416 7.1373 0.6887 -36.8007 -16.0700 18.0322 -0.5482 -14.7564 -12.9437 -1.9984 -0.9338 31.8595 -5.9724 14.4053 2.5461 3.5622 1.5732 6.7416 4.8037 5.5051 2.0827 -13.5637 -3.8587 5.1643 -24.1044 -9.7980 8.1698 -16.4704 -7.9317 3.4429 -14.3296 -10.3419 -2.7803 -16.5453 -3.8524 4.4717 -4.7793 -1.4364 1.1883 -12.5134 -12.3202 -8.8620 -16.5434 -3.8277 1.2579 -3.9066 -0.1319 2.1868 -23.0346 -17.2428 -7.3241 -13.9740 -2.8230 0.8723 -2.2214 -0.2021 1.2664 1.0477 4.3584 -8.6621 4.2892 8.7008 24.7824 -2.6128 1.8464 -14.0888 0.0000 0.0000 -0.4544 -3.0290 -14.2720 -8.2368 -2.8924 -4.1403 19.7747 6.4939 -2.9358 -8.3133 -0.0000 -0.0000 -0.0000 
0.8890 102.6024 2.0761 -1.5298 -0.1063 -1.6676 0.1263 -0.0804 1.0791 0.0148 -2.3686 1.2363 0.0637 -2.3663 1.2325 -1.3460 0.7732 -2.4348 3.6998 -1.9417 5.6101 -11.9841 3.1173 0.4586 40.0412 18.6296 15.7082 0.8825 13.3276 -11.5563 -7.2604 -7.2309 23.9293 -2.0805 -8.7443 22.8369 -3.2059 6.3967 -5.9932 -4.8998 -4.7612 -1.7245 5.3076 -2.3383 7.2035 27.1652 10.6730 9.4951 7.6950 4.4467 0.4105 7.4897 4.7113 0.5076 22.7351 5.3038 5.9079 -3.7066 -2.8541 -0.5148 8.0971 8.9956 -6.1465 22.6611 4.9110 2.2973 1.8166 -1.9065 1.5275 12.7069 13.5241 -9.1738 11.2508 0.2406 4.1117 2.4514 0.2414 1.2901 8.2243 7.1205 0.6871 -36.7283 -16.0128 17.9937 -0.5559 -14.7253 -12.9132 -1.9623 -0.9628 31.9296 -5.9690 14.4101 2.5484 3.5591 1.5804 6.7260 4.8001 5.4992 2.0666 -13.5037 -3.8571 5.1183 -24.1400 -9.8090 8.1847 -16.4914 -7.9393 3.4507 -14.3276 -10.3609 -2.8133 -16.5700 -3.8586 4.4770 -4.7944 -1.4412 1.1910 -12.5610 -12.3536 -8.8868 -16.5547 -3.8298 1.2597 -3.9132 -0.1333 2.1875 -23.1785 -17.2982 -7.3184 -13.9740 -2.8230 0.8723 -2.2212 -0.2021 1.2663 1.0568 4.2550 -8.6186 4.2038 8.7233 24.9080 -2.4997 1.9181 -14.2274 -0.0000 0.0000 -0.4713 -3.0768 -14.3071 -8.1077 -2.9606 -4.1847 19.7153 6.6270 -2.8645 -8.2817 -0.0000 0.0000 -0.0001 
1.0269 102.5654 2.1311 -1.5849 -0.0697 -1.7270 0.1044 -0.0640 1.1030 -0.0208 -2.3338 1.2864 0.0296 -2.3317 1.2840 -1.3230 0.7685 -2.2803 3.7419 -1.9613 5.6575 -11.9401 3.2029 0.4640 40.1301 18.6444 15.8168 0.8729 13.3712 -11.5983 -7.2101 -7.3747 23.7442 -1.8928 -8.7433 22.6656 -3.3204 6.4338 -5.7381 -4.9096 -4.7947 -1.6172 5.3926 -2.3315 7.2654 27.1780 10.6766 9.5006 7.6389 4.4227 0.3926 6.8250 4.4412 0.3570 23.2343 5.4149 6.0283 -3.6760 -2.7421 -0.4825 7.5620 8.7925 -6.2799 23.3601 5.0286 2.4212 1.8697 -1.7924 1.5625 12.0734 13.3114 -9.3658 11.7495 0.2941 4.1424 2.6190 0.2712 1.3011 8.2257 7.0388 0.6811 -36.6723 -15.8823 17.9400 -0.5653 -14.6873 -12.8760 -1.9008 -0.9690 31.9967 -5.9668 14.4108 2.5455 3.5584 1.5855 6.7169 4.7965 5.4946 2.0561 -13.3524 -3.8477 5.0099 -24.2723 -9.8497 8.2398 -16.5627 -7.9652 3.4773 -14.2371 -10.3640 -2.8960 -16.6616 -3.8816 4.4967 -4.8453 -1.4575 1.2001 -12.5573 -12.3722 -8.9329 -16.5941 -3.8373 1.2659 -3.9367 -0.1381 2.1900 -23.2462 -17.3299 -7.3313 -13.9740 -2.8230 0.8723 -2.2203 -0.2019 1.2663 1.0766 4.0209 -8.6261 4.1844 8.8576 25.1540 -2.4306 1.9657 -14.4137 -0.0000 0.0000 -0.4852 -3.1156 -14.3311 -8.0416 -3.0250 -4.1858 19.7961 6.7651 -2.8437 -8.3317 -0.0000 -0.0000 -0.0001 
1.1535 102.5005 2.1819 -1.6515 -0.0268 -1.7848 0.0768 -0.0435 1.1279 -0.0609 -2.2942 1.3376 -0.0090 -2.2922 1.3369 -1.2699 0.7545 -2.1029 3.7750 -1.9818 5.6807 -11.8378 3.3622 0.4749 40.1528 18.6021 15.9202 0.8575 13.4410 -11.6655 -7.1888 -7.4620 23.6108 -1.7231 -8.7391 22.5119 -3.4229 6.4657 -5.5132 -4.9178 -4.8237 -1.5231 5.3214 -2.3651 7.2539 27.3259 10.7183 9.5642 7.6827 4.4414 0.4066 6.2090 4.2038 0.1950 23.7478 5.5280 6.1531 -3.5719 -2.6219 -0.4454 7.1304 8.6357 -6.4046 23.9969 5.1343 2.5352 1.9427 -1.6920 1.5944 11.5970 13.1556 -9.5239 12.1933 0.3414 4.1702 2.7907 0.3017 1.3124 8.2941 6.8401 0.6694 -36.6945 -15.6567 17.8683 -0.5765 -14.6417 -12.8313 -1.8076 -0.9575 32.0504 -5.9657 14.4080 2.5378 3.5577 1.5870 6.7149 4.7940 5.4933 2.0571 -13.1524 -3.8381 4.8626 -24.4587 -9.9068 8.3176 -16.6621 -8.0013 3.5143 -14.1011 -10.3640 -3.0126 -16.7907 -3.9139 4.5246 -4.9161 -1.4803 1.2128 -12.5288 -12.3887 -9.0007 -16.6492 -3.8477 1.2745 -3.9693 -0.1448 2.1934 -23.2803 -17.3561 -7.3652 -13.9740 -2.8230 0.8723 -2.2188 -0.2017 1.2662 1.1080 3.6945 -8.7073 4.2440 9.0726 25.5490 -2.4108 1.9829 -14.6606 0.0000 -0.0000 -0.4954 -3.1337 -14.3577 -8.0560 -3.0900 -4.1475 20.0356 6.9069 -2.8524 -8.4685 -0.0000 -0.0000 -0.0000 
1.2683 102.4116 2.2278 -1.7300 0.0174 -1.8387 0.0454 -0.0193 1.1524 -0.1035 -2.2509 1.3874 -0.0501 -2.2488 1.3885 -1.1821 0.7300 -1.9051 3.7937 -2.0018 5.6951 -11.6696 3.6150 0.4917 40.0898 18.4883 15.9984 0.8366 13.5342 -11.7555 -7.1989 -7.4807 23.5348 -1.6062 -8.7316 22.4104 -3.4912 6.4859 -5.3664 -4.9228 -4.8420 -1.4629 5.0700 -2.4511 7.1659 27.6239 10.8018 9.6927 7.8410 4.5090 0.4572 5.6757 4.0093 0.0354 24.2442 5.6362 6.2747 -3.3909 -2.5011 -0.4052 6.8383 8.5350 -6.5021 24.5197 5.2201 2.6297 2.0310 -1.6150 1.6200 11.3268 13.0702 -9.6223 12.5459 0.3788 4.1925 2.9484 0.3297 1.3229 8.4538 6.5163 0.6527 -36.8307 -15.3288 17.7807 -0.5892 -14.5898 -12.7806 -1.6844 -0.9385 32.0823 -5.9658 14.4026 2.5273 3.5538 1.5831 6.7198 4.7933 5.4971 2.0754 -12.9599 -3.8360 4.7107 -24.6431 -9.9631 8.3947 -16.7601 -8.0368 3.5510 -13.9677 -10.3706 -3.1378 -16.9184 -3.9458 4.5523 -4.9858 -1.5026 1.2253 -12.4980 -12.4101 -9.0821 -16.7037 -3.8579 1.2831 -4.0012 -0.1513 2.1967 -23.3063 -17.3859 -7.4176 -13.9740 -2.8230 0.8723 -2.2171 -0.2013 1.2661 1.1471 3.3579 -8.8552 4.3624 9.2975 26.0676 -2.4285 1.9765 -14.9589 0.0000 0.0000 -0.4949 -3.1283 -14.4073 -8.1430 -3.1585 -4.0755 20.4079 7.0471 -2.8622 -8.6745 0.0000 -0.0000 -0.0000 
